<?xml version="1.0" encoding="utf-8"?>
<!-- Generator: Adobe Illustrator 18.1.0, SVG Export Plug-In . SVG Version: 6.00 Build 0)  -->
<svg version="1.2" baseProfile="tiny" id="Layer_1" xmlns="http://www.w3.org/2000/svg" xmlns:xlink="http://www.w3.org/1999/xlink"
	 x="0px" y="0px" viewBox="0 0 76 71" xml:space="preserve">
<g>
	<path fill="#030306" d="M18.1,26.4l-4.9,0v-6.6l4.9,0c2,0,3.6,1.3,3.6,3.3C21.7,25.1,20.1,26.4,18.1,26.4 M65.8,41l-5.6-25.1
		c-0.3-1.9-2-3.1-3.8-3c-1.4,0-2.8,0.9-3.4,2.7L46.8,32l-6.1-16.3c-0.6-1.8-2-2.7-3.4-2.7c-1.8-0.1-3.5,1.1-3.8,3l-4.3,21.5L22,31.7
		c3.5-0.7,7-4.4,7-8.5c0-6.6-4.9-10.3-10.5-10.3v0l-8.9,0c-0.4,0-0.8,0.1-1.1,0.2c-0.1,0-0.2,0.1-0.3,0.1c0,0,0,0,0,0
		c-1.3,0.5-2.2,1.8-2.2,3.4v25c0,2,1.6,3.6,3.6,3.6c2,0,3.6-1.6,3.6-3.6V33l14.3,10.8c1.4,1.1,2.2,1.3,3,1.4l0,0
		c0.7,0.1,1.5,0.1,2.2-0.3c0.7-0.3,1.3-0.9,1.6-1.6l0,0c0.4-0.8,0.6-1.5,0.6-1.5L38,28.5l5.4,14.6c0.6,1.4,2.1,2.2,3.5,2.1
		c1.4,0,2.7-0.8,3.3-2.1l5.5-14.8l3.3,14c0.3,2,2.3,3.3,4.3,2.8C65.1,44.6,66.1,43,65.8,41"/>
	<path fill="#030306" d="M64,13.5h-0.8c-0.1,0-0.2-0.1-0.2-0.2v-0.1c0-0.1,0.1-0.2,0.2-0.2h2.2c0.1,0,0.2,0.1,0.2,0.2v0.1
		c0,0.1-0.1,0.2-0.2,0.2h-0.8v2.4c0,0.1-0.1,0.2-0.2,0.2h-0.2C64,16.1,64,16,64,15.9V13.5z"/>
	<path fill="#030306" d="M66,13.2c0-0.1,0.1-0.2,0.2-0.2h0.3c0.1,0,0.2,0,0.2,0.1l0.6,1.4c0.1,0.2,0.2,0.5,0.2,0.5h0
		c0,0,0.1-0.3,0.2-0.5l0.5-1.4c0-0.1,0.1-0.1,0.2-0.1h0.3c0.1,0,0.2,0.1,0.2,0.2l0.2,2.7c0,0.1-0.1,0.2-0.2,0.2h-0.2
		c-0.1,0-0.2-0.1-0.2-0.2l-0.1-1.5c0-0.2,0-0.5,0-0.5h0c0,0-0.1,0.3-0.2,0.5l-0.4,1c0,0.1-0.1,0.1-0.2,0.1h-0.2
		c-0.1,0-0.2,0-0.2-0.1l-0.4-1c-0.1-0.2-0.2-0.5-0.2-0.5h0c0,0,0,0.3,0,0.5l-0.1,1.5c0,0.1-0.1,0.2-0.2,0.2H66
		c-0.1,0-0.2-0.1-0.2-0.2L66,13.2z"/>
	<path fill="#030306" d="M49.2,49.2h-0.2c-0.1,0-0.2,0.1-0.2,0.2v0.5c0,0.2,0.1,0.2,0.2,0.2h0.2c0.1,0,0.2-0.1,0.2-0.2v-0.5
		C49.4,49.3,49.3,49.2,49.2,49.2"/>
	<path fill="#030306" d="M11.4,57.9H7v-3.6h3.4c0.2,0,0.4-0.2,0.4-0.4v-0.1c0-0.2-0.2-0.4-0.4-0.4H7v-3.6h4.2c0.2,0,0.4-0.2,0.4-0.4
		v-0.1c0-0.2-0.2-0.4-0.4-0.4H6.4c-0.2,0-0.4,0.2-0.4,0.4v9.1c0,0.2,0.2,0.4,0.4,0.4h5c0.2,0,0.4-0.2,0.4-0.4v-0.1
		C11.9,58.1,11.7,57.9,11.4,57.9"/>
	<path fill="#030306" d="M15.8,52.4c1.5,0,2.2,1.5,2.2,2.8c0,2.1-1.2,2.8-2.2,2.8c-1.3,0-2.2-1.1-2.2-2.8
		C13.6,53.6,14.5,52.4,15.8,52.4 M18.5,48.9h-0.1c-0.2,0-0.4,0.2-0.4,0.4v3.2c-0.4-0.5-1.1-1.1-2.2-1.1c-1.9,0-3.2,1.5-3.2,3.7
		c0,2.3,1.2,3.7,3.1,3.7c1.2,0,1.9-0.6,2.3-1v0.5c0,0.2,0.2,0.4,0.4,0.4h0.1c0.2,0,0.4-0.2,0.4-0.4v-9.1
		C19,49.1,18.8,48.9,18.5,48.9"/>
	<path fill="#030306" d="M26.3,51.7h-0.1c-0.2,0-0.4,0.2-0.4,0.4v3.1c0,1.4-1,2.9-2.6,2.9c-1.3,0-1.5-0.8-1.5-2.1v-3.9
		c0-0.2-0.2-0.4-0.4-0.4h-0.1c-0.2,0-0.4,0.2-0.4,0.4v4.1c0,2,0.7,2.8,2.4,2.8c1.3,0,2.2-0.7,2.6-1.4v0.8c0,0.2,0.2,0.4,0.4,0.4h0.1
		c0.2,0,0.4-0.2,0.4-0.4v-6.3C26.8,51.8,26.6,51.7,26.3,51.7"/>
	<path fill="#030306" d="M34.4,57.4c-0.1-0.1-0.2-0.2-0.3-0.2c-0.1,0-0.2,0-0.3,0.1c-0.3,0.3-1,0.7-2,0.7c-1.6,0-2.7-1.2-2.7-2.8
		c0-1.6,1.2-2.8,2.7-2.8c0.9,0,1.6,0.5,1.8,0.7c0.1,0.1,0.2,0.1,0.3,0.1c0.1,0,0.2,0,0.3-0.2l0.1-0.1c0.2-0.2,0.1-0.4,0-0.6
		c-0.4-0.3-1.2-0.9-2.4-0.9c-2.1,0-3.7,1.6-3.7,3.8c0,2.2,1.6,3.7,3.7,3.7c1.3,0,2.2-0.6,2.5-1c0.2-0.2,0.2-0.4,0.1-0.5L34.4,57.4z"
		/>
	<path fill="#030306" d="M47.1,58c-0.6,0-1.5-0.3-1.5-1.9v-3.6H47c0.2,0,0.4-0.2,0.4-0.4v-0.1c0-0.2-0.2-0.4-0.4-0.4h-1.4v-1.5
		c0-0.2-0.2-0.4-0.4-0.4h-0.1c-0.2,0-0.4,0.2-0.4,0.4v1.5h-0.5c-0.2,0-0.4,0.2-0.4,0.4v0.1c0,0.2,0.2,0.4,0.4,0.4h0.5v3.6
		c0,1.7,0.9,2.7,2.5,2.7c0.3,0,0.4-0.2,0.4-0.4v-0.1C47.6,58.2,47.4,58,47.1,58"/>
	<path fill="#030306" d="M49.1,51.7H49c-0.2,0-0.4,0.2-0.4,0.4v6.3c0,0.2,0.2,0.4,0.4,0.4h0.1c0.2,0,0.4-0.2,0.4-0.4v-6.3
		C49.5,51.8,49.4,51.7,49.1,51.7"/>
	<path fill="#030306" d="M39.1,58.1c-1.4,0-2.5-1.3-2.5-2.9c0-1.6,1.1-2.8,2.5-2.8c1.4,0,2.5,1.2,2.5,2.8
		C41.6,56.8,40.5,58.1,39.1,58.1 M42.1,51.7H42c-0.2,0-0.4,0.2-0.4,0.4v0.6c-0.6-0.8-1.5-1.2-2.5-1.2c-1.9,0-3.4,1.6-3.4,3.7
		c0,2.1,1.5,3.8,3.4,3.8c1,0,1.9-0.5,2.5-1.2v0.7c0,0.2,0.2,0.4,0.4,0.4h0.1c0.2,0,0.4-0.2,0.4-0.4v-6.3
		C42.5,51.8,42.3,51.7,42.1,51.7"/>
	<path fill="#030306" d="M54.7,58.1c-1.5,0-2.8-1.3-2.8-2.9c0-1.6,1.2-2.8,2.8-2.8c1.5,0,2.7,1.2,2.7,2.8
		C57.4,56.8,56.2,58.1,54.7,58.1 M54.7,51.5c-2.1,0-3.7,1.6-3.7,3.7c0,2.1,1.6,3.8,3.7,3.8c2.1,0,3.7-1.7,3.7-3.8
		C58.4,53.1,56.7,51.5,54.7,51.5"/>
	<path fill="#030306" d="M63.4,51.5c-1.3,0-2.2,0.7-2.7,1.4v-0.8c0-0.2-0.2-0.4-0.4-0.4h-0.1c-0.3,0-0.4,0.2-0.4,0.4v6.3
		c0,0.2,0.2,0.4,0.4,0.4h0.1c0.2,0,0.4-0.2,0.4-0.4v-3.2c0-1.6,1.2-2.8,2.7-2.8c1.3,0,1.5,0.8,1.5,2.1v3.9c0,0.2,0.2,0.4,0.4,0.4
		h0.1c0.2,0,0.4-0.2,0.4-0.4v-4.1C65.8,53,65.5,51.5,63.4,51.5"/>
</g>
</svg>
